<svg xmlns="http://www.w3.org/2000/svg" viewBox="0 0 49.59 50"><defs><style>.cls-1{isolation:isolate}.cls-10,.cls-11,.cls-12,.cls-13,.cls-14,.cls-15,.cls-16,.cls-17,.cls-2,.cls-4,.cls-5,.cls-6,.cls-7,.cls-8,.cls-9{mix-blend-mode:screen}.cls-3{fill:#fff}.cls-4{opacity:.2}.cls-5{opacity:.25}.cls-6{opacity:.3}.cls-7{opacity:.35}.cls-8{opacity:.4}.cls-9{opacity:.45}.cls-10{opacity:.5}.cls-11{opacity:.55}.cls-12{opacity:.6}.cls-13{opacity:.65}.cls-14{opacity:.7}.cls-15{opacity:.8}.cls-16{opacity:.85}.cls-17{opacity:.9}</style></defs><title>资源 18</title><g class="cls-1"><g id="图层_2" data-name="图层 2"><g id="Elements"><g class="cls-2"><rect width="2" height="6.4" x="23.79" class="cls-3"/></g><g class="cls-4"><rect width="2" height="6.4" x="16.34" y="1.31" class="cls-3" transform="translate(-0.5 6.2) rotate(-20)"/></g><g class="cls-5"><rect width="2" height="6.4" x="9.78" y="5.1" class="cls-3" transform="translate(-2.81 8.87) rotate(-40)"/></g><g class="cls-6"><rect width="2" height="6.4" x="4.91" y="10.9" class="cls-3" transform="translate(-9.25 12.17) rotate(-60)"/></g><g class="cls-7"><rect width="2" height="6.4" x="2.32" y="18.02" class="cls-3" transform="translate(-18.15 20.8) rotate(-80)"/></g><g class="cls-8"><rect width="6.4" height="2" x=".13" y="27.79" class="cls-3" transform="matrix(0.98, -0.17, 0.17, 0.98, -4.95, 1.02)"/></g><g class="cls-9"><rect width="6.4" height="2" x="2.71" y="34.9" class="cls-3" transform="translate(-17.16 7.76) rotate(-29.99)"/></g><g class="cls-10"><rect width="6.4" height="2" x="7.58" y="40.7" class="cls-3" transform="translate(-28.1 23.16) rotate(-50.01)"/></g><g class="cls-11"><rect width="6.4" height="2" x="14.14" y="44.49" class="cls-3" transform="translate(-31.34 46.24) rotate(-70.02)"/></g><g class="cls-12"><rect width="2" height="6.4" x="23.79" y="43.6" class="cls-3"/></g><g class="cls-13"><rect width="2" height="6.4" x="31.25" y="42.29" class="cls-3" transform="translate(-13.61 13.77) rotate(-20)"/></g><g class="cls-14"><rect width="2" height="6.4" x="37.81" y="38.5" class="cls-3" transform="translate(-17.73 34.7) rotate(-40)"/></g><g class="cls-15"><rect width="2" height="6.4" x="42.67" y="32.7" class="cls-3" transform="translate(-9.25 55.77) rotate(-60)"/></g><g class="cls-16"><rect width="2" height="6.4" x="45.26" y="25.59" class="cls-3" transform="translate(9.88 69.35) rotate(-80)"/></g><g class="cls-17"><rect width="6.4" height="2" x="43.07" y="20.21" class="cls-3" transform="translate(-2.98 8.36) rotate(-10.01)"/></g><g class="cls-2"><rect width="6.4" height="2" x="40.48" y="13.1" class="cls-3" transform="translate(-1.2 23.72) rotate(-29.99)"/></g><g class="cls-2"><rect width="6.4" height="2" x="35.61" y="7.3" class="cls-3" transform="translate(7.51 32.7) rotate(-50.01)"/></g><g class="cls-2"><rect width="6.4" height="2" x="29.05" y="3.51" class="cls-3" transform="translate(16.97 33.27) rotate(-69.98)"/></g></g></g></g></svg>