<svg xmlns="http://www.w3.org/2000/svg" viewBox="0 0 28.99 28.99"><defs><style>.cls-1{fill:#fff}.cls-2{fill:#69bffe}</style></defs><title>资源 11</title><g id="图层_2" data-name="图层 2"><g id="央铋_1" data-name="央铋 1"><path d="M14.5,29A14.5,14.5,0,1,1,29,14.5,14.51,14.51,0,0,1,14.5,29ZM14.5.55a13.95,13.95,0,1,0,13.94,14A14,14,0,0,0,14.5.55Z" class="cls-1"/><path d="M14.5,26.46a12,12,0,1,1,12-12A12,12,0,0,1,14.5,26.46Zm0-23.37A11.41,11.41,0,1,0,25.91,14.5,11.41,11.41,0,0,0,14.5,3.09Z" class="cls-1"/><circle cx="14.5" cy="2.81" r=".76" class="cls-2"/><path d="M12.2,3a.76.76,0,1,0-.53.93A.75.75,0,0,0,12.2,3Z" class="cls-2"/><path d="M9.31,4a.75.75,0,0,0-1-.28A.75.75,0,1,0,9,5,.75.75,0,0,0,9.31,4Z" class="cls-2"/><circle cx="6.23" cy="6.23" r=".76" class="cls-2"/><path d="M4.75,8a.75.75,0,0,0-1,.28A.75.75,0,1,0,5,9,.75.75,0,0,0,4.75,8Z" class="cls-2"/><path d="M3.4,10.74A.76.76,0,0,0,3,12.2a.76.76,0,1,0,.39-1.46Z" class="cls-2"/><circle cx="2.81" cy="14.5" r=".76" class="cls-2"/><path d="M3,16.79a.76.76,0,1,0,.93.53A.76.76,0,0,0,3,16.79Z" class="cls-2"/><path d="M4,19.68a.76.76,0,0,0-.28,1A.76.76,0,0,0,5,20,.76.76,0,0,0,4,19.68Z" class="cls-2"/><circle cx="6.23" cy="22.76" r=".76" class="cls-2"/><path d="M8,24.24a.75.75,0,0,0,.28,1,.75.75,0,1,0-.28-1Z" class="cls-2"/><path d="M10.74,25.59A.76.76,0,0,0,12.2,26a.76.76,0,1,0-1.46-.39Z" class="cls-2"/><path d="M13.74,26.18a.76.76,0,1,0,1.51,0,.76.76,0,0,0-1.51,0Z" class="cls-2"/><path d="M16.79,26a.76.76,0,1,0,.53-.93A.76.76,0,0,0,16.79,26Z" class="cls-2"/><path d="M19.68,25a.76.76,0,0,0,1,.28A.76.76,0,0,0,20,24,.76.76,0,0,0,19.68,25Z" class="cls-2"/><circle cx="22.76" cy="22.76" r=".76" class="cls-2"/><path d="M24.24,21a.75.75,0,0,0,1-.27A.76.76,0,1,0,24,20,.75.75,0,0,0,24.24,21Z" class="cls-2"/><path d="M25.59,18.25A.76.76,0,0,0,26,16.79a.76.76,0,1,0-.39,1.46Z" class="cls-2"/><path d="M26.18,15.25a.76.76,0,1,0-.75-.75A.75.75,0,0,0,26.18,15.25Z" class="cls-2"/><path d="M26,12.2a.76.76,0,1,0-.93-.53A.76.76,0,0,0,26,12.2Z" class="cls-2"/><path d="M25,9.31a.75.75,0,0,0,.28-1,.75.75,0,0,0-1-.28A.75.75,0,0,0,25,9.31Z" class="cls-2"/><circle cx="22.76" cy="6.23" r=".76" class="cls-2"/><path d="M21,4.75a.75.75,0,0,0-.27-1A.76.76,0,1,0,20,5,.75.75,0,0,0,21,4.75Z" class="cls-2"/><path d="M18.25,3.4a.76.76,0,1,0-.93.54A.75.75,0,0,0,18.25,3.4Z" class="cls-2"/><path d="M14.5,23.79A9.31,9.31,0,0,1,5.2,14.5h.55a8.75,8.75,0,0,0,8.75,8.74Z" class="cls-1"/><path d="M23.79,14.5h-.55A8.75,8.75,0,0,0,14.5,5.75V5.2A9.31,9.31,0,0,1,23.79,14.5Z" class="cls-1"/></g></g></svg>