<svg xmlns="http://www.w3.org/2000/svg" viewBox="0 0 971 49"><defs><style>.cls-1{fill:#fff}.cls-2{opacity:.5}.cls-3{fill:#29abe2}</style></defs><title>资源 5</title><g id="图层_2" data-name="图层 2"><g id="Layer_1" data-name="Layer 1"><rect width="11" height="4" x="933" y="25" class="cls-1"/><rect width="8" height="8" x="906" y="21" class="cls-1"/><rect width="11" height="8" x="875" y="25" class="cls-1"/><rect width="9" height="14" x="848" y="27" class="cls-1"/><rect width="9" height="6" x="821" y="25" class="cls-1"/><rect width="11" height="8" x="791" y="21" class="cls-1"/><rect width="9" height="22" x="765" y="5" class="cls-1"/><rect width="11" height="12" x="734" y="15" class="cls-1"/><rect width="9" height="6" x="707" y="23" class="cls-1"/><rect width="8" height="8" x="679" y="25" class="cls-1"/><rect width="9" height="8" x="651" y="25" class="cls-1"/><rect width="9" height="14" x="622" y="27" class="cls-1"/><rect width="9" height="20" x="594" y="25" class="cls-1"/><rect width="9" height="8" x="565" y="25" class="cls-1"/><rect width="9" height="14" x="537" y="21" class="cls-1"/><rect width="11" height="10" x="508" y="25" class="cls-1"/><rect width="9" height="16" x="481" y="27" class="cls-1"/><rect width="12" height="14" x="451" y="27" class="cls-1"/><rect width="8" height="16" x="425" y="17" class="cls-1"/><rect width="8" height="14" x="397" y="17" class="cls-1"/><rect width="10" height="14" x="367" y="13" class="cls-1"/><rect width="8" height="16" x="340" y="11" class="cls-1"/><rect width="9" height="8" x="311" y="21" class="cls-1"/><rect width="9" height="4" x="283" y="25" class="cls-1"/><rect width="8" height="10" x="255" y="25" class="cls-1"/><rect width="10" height="10" x="225" y="25" class="cls-1"/><rect width="9" height="8" x="197" y="25" class="cls-1"/><rect width="10" height="6" x="169" y="25" class="cls-1"/><rect width="10" height="8" x="140" y="21" class="cls-1"/><rect width="9" height="12" x="114" y="15" class="cls-1"/><rect width="10" height="12" x="85" y="15" class="cls-1"/><rect width="9" height="4" x="56" y="25" class="cls-1"/><rect width="11" height="8" x="27" y="25" class="cls-1"/><rect width="8" height="6" y="25" class="cls-1"/><rect width="5" height="4" x="966" y="25" class="cls-1"/><g class="cls-2"><rect width="971" height="2" class="cls-3"/></g><g class="cls-2"><rect width="971" height="2" y="47" class="cls-3"/></g></g></g></svg>