<svg xmlns="http://www.w3.org/2000/svg" viewBox="0 0 421.92 764.61"><defs><style>.cls-1,.cls-22{opacity:.5}.cls-10,.cls-11,.cls-12,.cls-13,.cls-14,.cls-15,.cls-16,.cls-17,.cls-18,.cls-19,.cls-2,.cls-20,.cls-21,.cls-27,.cls-28,.cls-29,.cls-4,.cls-5,.cls-6,.cls-7,.cls-8,.cls-9{fill:#3fa9f5}.cls-22,.cls-23,.cls-3{fill:none}.cls-22,.cls-3{stroke:#3fa9f5;stroke-miterlimit:10}.cls-3{stroke-width:3px}.cls-4{opacity:.14}.cls-5{opacity:.47}.cls-6{opacity:.63}.cls-7{opacity:.79}.cls-8{opacity:.67}.cls-9{opacity:.12}.cls-10{opacity:.91}.cls-11{opacity:.48}.cls-12{opacity:.45}.cls-13{opacity:.46}.cls-14{opacity:.36}.cls-15{opacity:.93}.cls-16{opacity:.95}.cls-17{opacity:.31}.cls-18{opacity:.86}.cls-19{opacity:.67}.cls-20{opacity:.58}.cls-21{opacity:.82}.cls-24,.cls-27{opacity:.3}.cls-25{opacity:.7}.cls-26{opacity:.2}.cls-28{opacity:.6}.cls-29{opacity:.9}</style></defs><title>资源 4</title><g id="图层_2" data-name="图层 2"><g id="Layer_2" data-name="Layer 2"><g class="cls-1"><polygon points="296.08 461.69 296.66 461.76 295.74 468.7 295.17 468.63 296.08 461.69" class="cls-2"/><rect width="7" height=".58" x="313.43" y="305.28" class="cls-2" transform="translate(-27.16 580.2) rotate(-82.55)"/><polygon points="286.21 459.68 286.77 459.83 284.96 466.59 284.4 466.44 286.21 459.68" class="cls-2"/><rect width="7" height=".58" x="323.75" y="307.33" class="cls-2" transform="translate(-54.55 544.16) rotate(-75.01)"/><rect width="7" height=".58" x="272.11" y="459.46" class="cls-2" transform="translate(-254.81 537.15) rotate(-67.36)"/><rect width="7" height=".58" x="333.73" y="310.72" class="cls-2" transform="translate(-78.99 503.92) rotate(-67.55)"/><rect width="7" height=".58" x="262.67" y="454.81" class="cls-2" transform="translate(-261.04 457.67) rotate(-59.96)"/><polygon points="348.17 312.49 348.67 312.78 345.17 318.85 344.67 318.55 348.17 312.49" class="cls-2"/><polygon points="259.31 446.29 259.78 446.65 255.51 452.2 255.05 451.85 259.31 446.29" class="cls-2"/><rect width="7" height=".58" x="351.93" y="321.23" class="cls-2" transform="translate(-116.02 407.79) rotate(-52.5)"/><rect width="7" height=".58" x="246" y="442.01" class="cls-2" transform="translate(-239.6 305.67) rotate(-44.97)"/><rect width="7" height=".58" x="359.84" y="328.17" class="cls-2" transform="translate(-125.82 353.42) rotate(-45.03)"/><polygon points="245.15 432.02 245.51 432.49 239.96 436.75 239.6 436.29 245.15 432.02" class="cls-2"/><rect width="7" height=".58" x="366.78" y="336.09" class="cls-2" transform="translate(-128.26 294.98) rotate(-37.51)"/><rect width="7" height=".58" x="233.2" y="425.34" class="cls-2" transform="translate(-180.54 174.43) rotate(-29.87)"/><rect width="7" height=".58" x="372.63" y="344.84" class="cls-2" transform="translate(-122.18 234.32) rotate(-30)"/><polygon points="235.17 414.58 235.39 415.12 228.93 417.8 228.7 417.26 235.17 414.58" class="cls-2"/><rect width="7" height=".58" x="377.29" y="354.29" class="cls-2" transform="translate(-106.71 172.73) rotate(-22.5)"/><rect width="7" height=".58" x="225.16" y="405.93" class="cls-2" transform="translate(-97.17 72.85) rotate(-14.97)"/><rect width="7" height=".58" x="380.68" y="364.26" class="cls-2" transform="matrix(0.97, -0.26, 0.26, 0.97, -81.24, 111.81)"/><rect width="7" height=".58" x="223.11" y="395.6" class="cls-2" transform="translate(-49.17 32.54) rotate(-7.41)"/><rect width="7" height=".58" x="382.73" y="374.58" class="cls-2" transform="translate(-45.69 53.71) rotate(-7.51)"/><rect width="7" height=".58" x="222.42" y="385.09" class="cls-2"/><rect width="7" height=".58" x="383.42" y="385.09" class="cls-2"/><rect width=".58" height="7" x="226.32" y="371.38" class="cls-2" transform="translate(-174.83 550.17) rotate(-82.44)"/><polygon points="389.74 396.06 389.66 396.63 382.72 395.72 382.8 395.14 389.74 396.06" class="cls-2"/><rect width=".58" height="7" x="228.37" y="361.05" class="cls-2" transform="translate(-182.74 490.75) rotate(-74.96)"/><rect width=".58" height="7" x="383.89" y="402.72" class="cls-2" transform="translate(-107.49 672.43) rotate(-75.03)"/><rect width=".58" height="7" x="231.76" y="351.08" class="cls-2" transform="translate(-184.36 433.17) rotate(-67.49)"/><polygon points="384.14 417.26 383.92 417.8 377.45 415.12 377.67 414.58 384.14 417.26" class="cls-2"/><rect width=".58" height="7" x="236.41" y="341.63" class="cls-2" transform="translate(-180.57 377.22) rotate(-59.95)"/><rect width=".58" height="7" x="375.84" y="422.13" class="cls-2" transform="translate(-180.2 540.23) rotate(-60.17)"/><rect width=".58" height="7" x="242.26" y="332.88" class="cls-2" transform="translate(-171.97 323.93) rotate(-52.49)"/><rect width=".58" height="7" x="369.99" y="430.89" class="cls-2" transform="translate(-199.72 464.36) rotate(-52.56)"/><rect width=".58" height="7" x="249.21" y="324.96" class="cls-2" transform="translate(-159.15 272.38) rotate(-44.97)"/><polygon points="366.02 444.57 365.61 444.99 360.66 440.04 361.07 439.62 366.02 444.57" class="cls-2"/><rect width=".58" height="7" x="257.12" y="318.02" class="cls-2" transform="translate(-142.45 222.81) rotate(-37.45)"/><rect width=".58" height="7" x="355.13" y="445.75" class="cls-2" transform="translate(-200.05 309.26) rotate(-37.51)"/><rect width=".58" height="7" x="265.88" y="312.17" class="cls-2" transform="translate(-122.12 175.24) rotate(-29.98)"/><polygon points="348.67 457.98 348.17 458.27 344.67 452.21 345.17 451.92 348.67 457.98" class="cls-2"/><rect width=".58" height="7" x="275.32" y="307.51" class="cls-2" transform="translate(-97.94 128.94) rotate(-22.47)"/><rect width=".58" height="7" x="336.93" y="456.25" class="cls-2" transform="translate(-150.48 164.39) rotate(-22.54)"/><rect width=".58" height="7" x="285.29" y="304.13" class="cls-2" transform="translate(-69.87 84.36) rotate(-14.99)"/><rect width=".58" height="7" x="326.96" y="459.64" class="cls-2" transform="translate(-108.37 100.06) rotate(-14.94)"/><rect width=".58" height="7" x="295.62" y="302.07" class="cls-2" transform="translate(-37.37 41.25) rotate(-7.5)"/><rect width=".58" height="7" x="316.64" y="461.69" class="cls-2" transform="translate(-58 45.34) rotate(-7.5)"/></g><circle cx="306.42" cy="385.38" r="108.49" class="cls-3"/><path d="M229.18,442.3l-6.42,4.77a103.85,103.85,0,0,0,9.91,11.56l5.66-5.65A95.85,95.85,0,0,1,229.18,442.3Z" class="cls-4"/><path d="M238.33,453l-5.66,5.65a106.65,106.65,0,0,0,8.63,7.81l5-6.27A96.78,96.78,0,0,1,238.33,453Z" class="cls-5"/><path d="M210.43,386.38h-8a105.14,105.14,0,0,0,.66,10.84l7.95-.92A95.87,95.87,0,0,1,210.43,386.38Z" class="cls-6"/><path d="M280.61,477.84l-2.07,7.73a105.25,105.25,0,0,0,12.68,2.7l1.17-7.92A94.7,94.7,0,0,1,280.61,477.84Z" class="cls-7"/><path d="M267.37,473.09l-3.18,7.34a103.57,103.57,0,0,0,14.35,5.14l2.07-7.73A95.49,95.49,0,0,1,267.37,473.09Z" class="cls-8"/><path d="M246.27,460.17l-5,6.27a104.07,104.07,0,0,0,12.54,8.65l4-6.93A95.82,95.82,0,0,1,246.27,460.17Z" class="cls-9"/><path d="M362.5,463.23l4.77,6.42a103.75,103.75,0,0,0,11.66-9.8l-5.66-5.65A95.72,95.72,0,0,1,362.5,463.23Z" class="cls-10"/><path d="M373.27,454.2l5.66,5.65a105.9,105.9,0,0,0,8.23-9l-6.27-5A96.44,96.44,0,0,1,373.27,454.2Z" class="cls-11"/><path d="M380.89,445.92l6.27,5a104.86,104.86,0,0,0,8.71-12.5l-6.93-4A95.81,95.81,0,0,1,380.89,445.92Z" class="cls-12"/><path d="M329.93,478.44l2.07,7.73a104.33,104.33,0,0,0,35.27-16.52l-4.77-6.42A96.17,96.17,0,0,1,329.93,478.44Z" class="cls-13"/><path d="M316.08,480.9l.92,8a102.57,102.57,0,0,0,15-2.68l-2.07-7.73A94,94,0,0,1,316.08,480.9Z" class="cls-14"/><path d="M211.45,371.36a97,97,0,0,1,2.16-10.49l-7.73-2.07a105.37,105.37,0,0,0-2.34,11.39c0,.33-.09.66-.14,1l7.92,1.17C211.36,372,211.4,371.69,211.45,371.36Z" class="cls-15"/><path d="M365.5,309.74l5-6.26A102.68,102.68,0,0,0,357.82,295l-4,6.92A95.93,95.93,0,0,1,365.5,309.74Z" class="cls-16"/><path d="M401.77,374.24l8-.92a103.77,103.77,0,0,0-2.89-15l-7.73,2.07A94.91,94.91,0,0,1,401.77,374.24Z" class="cls-17"/><path d="M248.11,309.19l-4.77-6.42A104,104,0,0,0,232,312.87l5.65,5.66A96,96,0,0,1,248.11,309.19Z" class="cls-18"/><path d="M294,290.18l-.92-7.95a103.35,103.35,0,0,0-14.92,3.08l2.07,7.73A94.49,94.49,0,0,1,294,290.18Z" class="cls-19"/><path d="M330.3,292.4l2.07-7.72a104.88,104.88,0,0,0-10.75-2.18l-1.17,7.91A99.24,99.24,0,0,1,330.3,292.4Z" class="cls-20"/><path d="M320.45,290.41l1.17-7.91a103.17,103.17,0,0,0-15.2-1.11v8A98.35,98.35,0,0,1,320.45,290.41Z" class="cls-21"/><path d="M382.85,308.45l4.95-4.95A116.29,116.29,0,0,0,363.56,285l-9.83,2.15C362.08,292,376.07,301.72,382.85,308.45Z" class="cls-2"/><path d="M411.2,357.19l6.76-1.81A115.6,115.6,0,0,0,387.8,303.5l-4.95,4.95A108.52,108.52,0,0,1,411.2,357.19Z" class="cls-2"/><path d="M414.92,385.38c0,.34,0,.67,0,1h7c0-.33,0-.66,0-1a115.12,115.12,0,0,0-4-30l-6.76,1.81A108.37,108.37,0,0,1,414.92,385.38Z" class="cls-2"/><path d="M410.06,418.87l7.84-3.26a115.51,115.51,0,0,0,4-29.23h-7C414.82,395.86,412.44,410.12,410.06,418.87Z" class="cls-2"/><path d="M304.42,476.86a91.5,91.5,0,0,1,0-182.95v-1a92.5,92.5,0,0,0,0,185Z" class="cls-2"/><path d="M308.42,292.91v1a91.5,91.5,0,0,1,0,183v1a92.5,92.5,0,0,0,0-184.95Z" class="cls-2"/><rect width="2" height="4" x="302.42" y="293.38" class="cls-2"/><rect width="2" height="4" x="308.42" y="293.38" class="cls-2"/><rect width="2" height="4" x="302.42" y="473.38" class="cls-2"/><rect width="2" height="4" x="308.42" y="473.38" class="cls-2"/><path d="M359.57,400.29a55,55,0,1,1-38.07-67.83A55,55,0,0,1,359.57,400.29Z" class="cls-22"/><path d="M260.24,410.87l-3,1.7A58,58,0,0,0,266,424.5l2.5-2.43A54.24,54.24,0,0,1,260.24,410.87Z" class="cls-2"/><path d="M268.53,422.07,266,424.5a56.92,56.92,0,0,0,11.6,9.28l1.78-3A53.69,53.69,0,0,1,268.53,422.07Z" class="cls-2"/><path d="M253.4,385.88l-3.49,0c0,.72,0-.55,0,.17a57.6,57.6,0,0,0,7.29,26.56l3-1.7A54.19,54.19,0,0,1,253.41,386C253.39,385.28,253.39,386.58,253.4,385.88Z" class="cls-2"/><path d="M292.79,436.6l-.94,3.35A57.23,57.23,0,0,0,306,442.08l0-3.48A54.21,54.21,0,0,1,292.79,436.6Z" class="cls-2"/><path d="M279.41,430.79l-1.78,3A57,57,0,0,0,291.85,440l.94-3.35A53.89,53.89,0,0,1,279.41,430.79Z" class="cls-2"/><polygon points="271.47 418.28 269.35 425.98 263.74 420.29 271.47 418.28" class="cls-2"/><g class="cls-1"><rect width="1" height="7" x="364.42" y="382.52" class="cls-2" transform="matrix(0, -1, 1, 0, -21.96, 750.03)"/><rect width="1" height="7" x="247.42" y="382.24" class="cls-2" transform="matrix(0, -1, 1, 0, -138.38, 632.8)"/><rect width="1" height="7" x="364.29" y="386.34" class="cls-2" transform="translate(-48.89 727.37) rotate(-86.11)"/><rect width="1" height="7" x="247.55" y="378.42" class="cls-2" transform="matrix(0.07, -1, 1, 0.07, -149.76, 603.59)"/><rect width="1" height="7" x="363.91" y="390.15" class="cls-2" transform="translate(-74.19 702.5) rotate(-82.36)"/><rect width="1" height="7" x="247.94" y="374.62" class="cls-2" transform="translate(-159.3 574.18) rotate(-82.37)"/><rect width="1" height="7" x="363.27" y="393.92" class="cls-2" transform="translate(-97.67 675.54) rotate(-78.61)"/><rect width="1" height="7" x="248.57" y="370.84" class="cls-2" transform="translate(-167.04 544.69) rotate(-78.62)"/><rect width="1" height="7" x="362.4" y="397.65" class="cls-2" transform="translate(-119.1 646.7) rotate(-74.86)"/><rect width="1" height="7" x="249.45" y="367.12" class="cls-2" transform="translate(-173.05 515.2) rotate(-74.87)"/><rect width="1" height="7" x="361.28" y="401.31" class="cls-2" transform="matrix(0.32, -0.95, 0.95, 0.32, -138.32, 616.11)"/><rect width="1" height="7" x="250.56" y="363.46" class="cls-2" transform="translate(-177.38 485.83) rotate(-71.13)"/><rect width="1" height="7" x="359.92" y="404.88" class="cls-2" transform="translate(-155.19 583.95) rotate(-67.37)"/><rect width="1" height="7" x="251.92" y="359.88" class="cls-2" transform="translate(-180.09 456.64) rotate(-67.38)"/><polygon points="361.75 413.87 355.48 410.76 355.92 409.86 362.19 412.97 361.75 413.87" class="cls-2"/><rect width="1" height="7" x="253.51" y="356.4" class="cls-2" transform="translate(-181.26 427.66) rotate(-63.64)"/><rect width="1" height="7" x="356.53" y="411.73" class="cls-2" transform="translate(-181.3 515.69) rotate(-59.88)"/><rect width="1" height="7" x="255.32" y="353.03" class="cls-2" transform="translate(-180.94 398.96) rotate(-59.89)"/><rect width="1" height="7" x="354.5" y="414.98" class="cls-2" transform="translate(-190.3 480.1) rotate(-56.14)"/><rect width="1" height="7" x="257.34" y="349.79" class="cls-2" transform="translate(-179.19 370.6) rotate(-56.14)"/><polygon points="355.23 424.12 349.69 419.84 350.3 419.05 355.84 423.32 355.23 424.12" class="cls-2"/><rect width="1" height="7" x="259.58" y="346.68" class="cls-2" transform="translate(-176.05 342.54) rotate(-52.4)"/><rect width="1" height="7" x="349.83" y="421.03" class="cls-2" transform="translate(-199.81 406.96) rotate(-48.64)"/><rect width="1" height="7" x="262.01" y="343.73" class="cls-2" transform="translate(-171.58 314.88) rotate(-48.65)"/><rect width="1" height="7" x="347.21" y="423.82" class="cls-2" transform="translate(-200.21 370.01) rotate(-44.89)"/><rect width="1" height="7" x="264.63" y="340.94" class="cls-2" transform="translate(-165.81 287.61) rotate(-44.9)"/><rect width="1" height="7" x="344.42" y="426.43" class="cls-2" transform="translate(-197.7 333.11) rotate(-41.14)"/><rect width="1" height="7" x="267.42" y="338.33" class="cls-2" transform="translate(-158.76 260.76) rotate(-41.15)"/><rect width="1" height="7" x="341.46" y="428.85" class="cls-2" transform="translate(-192.29 296.54) rotate(-37.4)"/><rect width="1" height="7" x="270.39" y="335.91" class="cls-2" transform="translate(-150.47 234.36) rotate(-37.41)"/><rect width="1" height="7" x="338.34" y="431.08" class="cls-2" transform="translate(-184.01 260.52) rotate(-33.64)"/><rect width="1" height="7" x="273.5" y="333.69" class="cls-2" transform="translate(-140.95 208.39) rotate(-33.66)"/><rect width="1" height="7" x="335.09" y="433.09" class="cls-2" transform="translate(-172.94 225.34) rotate(-29.89)"/><rect width="1" height="7" x="276.75" y="331.67" class="cls-2" transform="translate(-130.2 182.89) rotate(-29.91)"/><rect width="1" height="7" x="331.71" y="434.89" class="cls-2" transform="translate(-159.22 191.32) rotate(-26.15)"/><rect width="1" height="7" x="280.13" y="329.88" class="cls-2" transform="translate(-118.25 157.91) rotate(-26.16)"/><rect width="1" height="7" x="328.23" y="436.46" class="cls-2" transform="translate(-142.9 158.55) rotate(-22.41)"/><rect width="1" height="7" x="283.61" y="328.3" class="cls-2" transform="translate(-105.07 133.43) rotate(-22.42)"/><rect width="1" height="7" x="324.65" y="437.8" class="cls-2" transform="translate(-124.12 127.25) rotate(-18.66)"/><rect width="1" height="7" x="287.2" y="326.96" class="cls-2" transform="matrix(0.95, -0.32, 0.32, 0.95, -90.65, 109.49)"/><rect width="1" height="7" x="320.98" y="438.91" class="cls-2" transform="matrix(0.97, -0.26, 0.26, 0.97, -103.05, 97.66)"/><rect width="1" height="7" x="290.86" y="325.86" class="cls-2" transform="translate(-74.99 86.14) rotate(-14.92)"/><rect width="1" height="7" x="317.26" y="439.77" class="cls-2" transform="translate(-79.88 69.99) rotate(-11.17)"/><rect width="1" height="7" x="294.58" y="324.99" class="cls-2" transform="translate(-58.08 63.43) rotate(-11.18)"/><rect width="1" height="7" x="313.48" y="440.39" class="cls-2" transform="translate(-54.74 44.31) rotate(-7.43)"/><rect width="1" height="7" x="298.36" y="324.37" class="cls-2" transform="translate(-39.9 41.42) rotate(-7.43)"/><rect width="1" height="7" x="309.67" y="440.76" class="cls-2" transform="translate(-27.85 20.81) rotate(-3.68)"/><rect width="1" height="7" x="302.17" y="324" class="cls-2" transform="translate(-20.42 20.13) rotate(-3.68)"/><rect width="7" height="1" x="302.85" y="443.88" class="cls-2" transform="translate(-138.65 749.84) rotate(-89.89)"/><rect width="1" height="7" x="305.99" y="323.88" class="cls-2"/><rect width="7" height="1" x="299.02" y="443.75" class="cls-2" transform="translate(-160.83 716.62) rotate(-86.19)"/><rect width="7" height="1" x="306.81" y="327.01" class="cls-2" transform="translate(-37.08 615.4) rotate(-86.19)"/><rect width="7" height="1" x="295.22" y="443.37" class="cls-2" transform="translate(-180.44 681.91) rotate(-82.48)"/><rect width="7" height="1" x="310.62" y="327.39" class="cls-2" transform="translate(-52.28 596.1) rotate(-82.43)"/><rect width="7" height="1" x="291.45" y="442.75" class="cls-2" transform="translate(-197.38 645.93) rotate(-78.74)"/><rect width="7" height="1" x="314.39" y="328.02" class="cls-2" transform="translate(-66.64 575.73) rotate(-78.68)"/><rect width="7" height="1" x="287.72" y="441.87" class="cls-2" transform="translate(-211.61 608.69) rotate(-74.94)"/><rect width="7" height="1" x="318.12" y="328.89" class="cls-2" transform="translate(-80.06 554.31) rotate(-74.93)"/><rect width="7" height="1" x="284.06" y="440.76" class="cls-2" transform="translate(-222.85 571.21) rotate(-71.19)"/><rect width="7" height="1" x="321.78" y="330" class="cls-2" transform="translate(-92.39 531.98) rotate(-71.21)"/><rect width="7" height="1" x="280.48" y="439.41" class="cls-2" transform="translate(-231.13 533.86) rotate(-67.49)"/><rect width="7" height="1" x="325.36" y="331.36" class="cls-2" transform="translate(-103.77 508.24) rotate(-67.44)"/><rect width="7" height="1" x="277" y="437.83" class="cls-2" transform="translate(-236.75 495.48) rotate(-63.69)"/><rect width="7" height="1" x="328.84" y="332.94" class="cls-2" transform="translate(-113.88 483.51) rotate(-63.68)"/><rect width="7" height="1" x="273.63" y="436.02" class="cls-2" transform="translate(-239.48 458.07) rotate(-59.98)"/><rect width="7" height="1" x="332.21" y="334.74" class="cls-2" transform="translate(-122.63 457.77) rotate(-59.93)"/><rect width="7" height="1" x="270.38" y="434" class="cls-2" transform="matrix(0.56, -0.83, 0.83, 0.56, -239.54, 420.24)"/><rect width="7" height="1" x="335.46" y="336.77" class="cls-2" transform="translate(-129.84 431.46) rotate(-56.22)"/><rect width="7" height="1" x="267.27" y="431.77" class="cls-2" transform="translate(-236.97 383.57) rotate(-52.46)"/><rect width="7" height="1" x="338.57" y="339" class="cls-2" transform="translate(-135.55 403.9) rotate(-52.46)"/><rect width="7" height="1" x="264.32" y="429.34" class="cls-2" transform="translate(-231.84 347.22) rotate(-48.69)"/><rect width="7" height="1" x="341.52" y="341.42" class="cls-2" transform="translate(-139.56 375.65) rotate(-48.72)"/><rect width="7" height="1" x="261.53" y="426.72" class="cls-2" transform="translate(-224.48 312.57) rotate(-45)"/><rect width="7" height="1" x="344.31" y="344.04" class="cls-2" transform="translate(-141.76 346.54) rotate(-44.96)"/><rect width="7" height="1" x="258.91" y="423.93" class="cls-2" transform="translate(-214.69 278.25) rotate(-41.24)"/><rect width="7" height="1" x="346.92" y="346.84" class="cls-2" transform="translate(-142.02 316.76) rotate(-41.19)"/><rect width="7" height="1" x="256.49" y="420.97" class="cls-2" transform="translate(-202.85 245.36) rotate(-37.5)"/><rect width="7" height="1" x="349.35" y="349.79" class="cls-2" transform="translate(-140.34 287.27) rotate(-37.51)"/><rect width="7" height="1" x="254.26" y="417.86" class="cls-2" transform="translate(-188.78 213.26) rotate(-33.69)"/><rect width="7" height="1" x="351.58" y="352.9" class="cls-2" transform="translate(-136.4 256.3) rotate(-33.69)"/><rect width="7" height="1" x="252.24" y="414.61" class="cls-2" transform="translate(-172.96 182.86) rotate(-29.92)"/><rect width="7" height="1" x="353.59" y="356.15" class="cls-2" transform="translate(-130.47 226.29) rotate(-29.99)"/><rect width="7" height="1" x="250.44" y="411.24" class="cls-2" transform="translate(-155.76 154.52) rotate(-26.21)"/><rect width="7" height="1" x="355.4" y="359.53" class="cls-2" transform="translate(-122.05 195.37) rotate(-26.19)"/><rect width="7" height="1" x="248.87" y="407.75" class="cls-2" transform="translate(-136.8 127.35) rotate(-22.45)"/><rect width="7" height="1" x="356.97" y="363.01" class="cls-2" transform="translate(-111.7 165.68) rotate(-22.51)"/><rect width="7" height="1" x="247.52" y="404.17" class="cls-2" transform="translate(-116.68 102.07) rotate(-18.74)"/><rect width="7" height="1" x="358.32" y="366.59" class="cls-2" transform="translate(-98.53 135.25) rotate(-18.68)"/><rect width="7" height="1" x="246.41" y="400.51" class="cls-2" transform="matrix(0.97, -0.26, 0.26, 0.97, -95.2, 78.26)"/><rect width="7" height="1" x="359.43" y="370.25" class="cls-2" transform="translate(-83.34 106.14) rotate(-14.94)"/><rect width="7" height="1" x="245.54" y="396.79" class="cls-2" transform="translate(-72.48 55.99) rotate(-11.21)"/><rect width="7" height="1" x="360.3" y="373.98" class="cls-2" transform="translate(-66.15 78.29) rotate(-11.27)"/><rect width="7" height="1" x="244.92" y="393.01" class="cls-2" transform="translate(-48.95 35.55) rotate(-7.45)"/><rect width="7" height="1" x="360.92" y="377.75" class="cls-2" transform="translate(-46.39 50.97) rotate(-7.52)"/><rect width="7" height="1" x="244.54" y="389.21" class="cls-2" transform="translate(-24.95 17.05) rotate(-3.75)"/><rect width="7" height="1" x="361.3" y="381.56" class="cls-2" transform="translate(-23.85 24.29) rotate(-3.69)"/><rect width="7" height="1" x="244.42" y="385.38" class="cls-2"/><rect width="7" height="1" x="361.42" y="385.38" class="cls-2"/></g><path d="M303.28,317.89a67.56,67.56,0,1,1-64.35,70.63A67.56,67.56,0,0,1,303.28,317.89Z" class="cls-23"/><path d="M309.61,453.87l-.1-2a66.63,66.63,0,0,0,63.4-69.58c0-1-.11-2-.2-2.94l2-.18q.14,1.5.21,3A68.64,68.64,0,0,1,309.61,453.87Z" class="cls-2"/><path d="M369.64,409.22a67.57,67.57,0,1,1-39.38-87.06A67.55,67.55,0,0,1,369.64,409.22Z" class="cls-23"/><path d="M285.1,450.54c-1-.33-2-.66-2.87-1a68.65,68.65,0,0,1-40-88.35l1.87.71a66.64,66.64,0,0,0,38.8,85.77c.92.35,1.85.67,2.78,1Z" class="cls-2"/><path d="M258.76,433.28a67.57,67.57,0,1,1,95.55-.24A67.56,67.56,0,0,1,258.76,433.28Z" class="cls-23"/><path d="M257.2,340.57l-1.47-1.35c.72-.79,1.4-1.51,2.09-2.2a68.15,68.15,0,0,1,48.43-20.2h.18a68.08,68.08,0,0,1,48.35,20l-1.41,1.42a66.12,66.12,0,0,0-46.94-19.38h-.17a66.12,66.12,0,0,0-47,19.61C258.54,339.13,257.86,339.85,257.2,340.57Z" class="cls-2"/><g class="cls-24"><path d="M218.54,472.76l-.7.71a125.49,125.49,0,0,0,25.51,19.78l.5-.86A125.17,125.17,0,0,1,218.54,472.76Z" class="cls-2"/><path d="M186.62,417.37l-1,.26a125,125,0,0,0,32.18,55.84l.7-.71A124.13,124.13,0,0,1,186.62,417.37Z" class="cls-2"/><path d="M182.43,385.38a123.74,123.74,0,0,1,4.13-31.76l-1-.26a124.88,124.88,0,0,0-4.17,32c0,.34,0,.67,0,1h1C182.44,386.05,182.43,385.72,182.43,385.38Z" class="cls-2"/><path d="M182.45,386.38h-1a124.45,124.45,0,0,0,4.21,31.25l1-.26A123.76,123.76,0,0,1,182.45,386.38Z" class="cls-2"/><path d="M273,266l-.26-1a125.06,125.06,0,0,0-55.63,33l.71.71A124,124,0,0,1,273,266Z" class="cls-2"/><path d="M217.82,298.75l-.71-.71a126,126,0,0,0-19.49,25.89l.86.5A124.7,124.7,0,0,1,217.82,298.75Z" class="cls-2"/><path d="M198.48,324.43l-.86-.5a124.43,124.43,0,0,0-12,29.43l1,.26A123.41,123.41,0,0,1,198.48,324.43Z" class="cls-2"/><path d="M337.54,265.35l.26-1a124.48,124.48,0,0,0-31.38-4v1A123.73,123.73,0,0,1,337.54,265.35Z" class="cls-2"/><path d="M306.42,261.4v-1A124.78,124.78,0,0,0,272.74,265l.26,1A123.65,123.65,0,0,1,306.42,261.4Z" class="cls-2"/></g><g class="cls-25"><path d="M182.45,386.38h-1a124.45,124.45,0,0,0,4.21,31.25l1-.26A123.76,123.76,0,0,1,182.45,386.38Z" class="cls-2"/><path d="M273,266l-.26-1a125.06,125.06,0,0,0-55.63,33l.71.71A124,124,0,0,1,273,266Z" class="cls-2"/></g><circle cx="337.62" cy="264.88" r="2" class="cls-2"/><circle cx="243.62" cy="492.88" r="2" class="cls-2"/><circle cx="184.45" cy="361.06" r="2" class="cls-2"/><circle cx="193.15" cy="333.67" r="2" class="cls-2"/><path d="M193.71,321.08v.56m-.14-1.67v.56m.14-1.68v.56" class="cls-2"/><path d="M187.28,330.68v-.27h.56V331l-.28.27" class="cls-2"/><path d="M182.26,333.25l.28.28v2.24l-.28.27m-.28-.56v-1.67" class="cls-2"/><path d="M184.9,336l-1.4-1.86V336h-.56v-2.79h.56l1.4,1.86v-1.86h.55V336Z" class="cls-2"/><path d="M183.15,338.05l.27.28v.55h-.55v-.27h-1.4v.55h1.68l.27.28v1.13l-.27.27m-1.68-.83v.27h1.4v-.55" class="cls-2"/><path d="M181.75,345.08v.56" class="cls-2"/><polygon points="191.98 764.62 43.98 482.62 44.84 482.1 226.84 754.1 226 754.66 49.23 490.46 192.86 764.15 191.98 764.62" class="cls-2"/><g class="cls-26"><rect width="1" height="392.37" x="188.96" y="423.79" class="cls-2" transform="translate(-391.96 333.23) rotate(-46.76)"/></g><path d="M48.61,482.89a3.75,3.75,0,1,1-3.75-3.75A3.75,3.75,0,0,1,48.61,482.89Z" class="cls-2"/><polygon points="45.32 483.08 44.4 482.69 81.86 394.41 3.83 252.34 4.02 252.09 147.74 54.46 84.1 .77 84.74 0 149.1 54.3 148.82 54.68 5.01 252.42 82.97 394.35 82.88 394.58 45.32 483.08" class="cls-2"/><rect width="158.09" height="1" x="-26.84" y="194.91" class="cls-2" transform="translate(-140.86 135.08) rotate(-57.69)"/><polygon points="59.79 446.87 69.22 518.98 74.76 527.85 59.79 446.87" class="cls-2"/><polygon points="57.72 452.87 65.04 512.61 60.7 506.66 57.72 452.87" class="cls-2"/><polygon points="39.44 21.99 66.11 21.23 144.61 60.1 39.44 21.99" class="cls-2"/><polygon points="73.73 21.99 144.61 58.57 83.64 20.47 73.73 21.99" class="cls-2"/><g class="cls-26"><polygon points="244.42 752.38 115.71 589.01 87.03 546.17 308.42 754.38 244.42 752.38" class="cls-2"/></g><rect width="1" height="1" x="74.21" y="390.05" class="cls-2" transform="matrix(0.88, -0.48, 0.48, 0.88, -178.62, 84.06)"/><path d="M73.08,388.61l-1-1.74.88-.48,1,1.74Zm-1.91-3.48-1-1.75.88-.48,1,1.75Z" class="cls-2"/><path d="M69.26,381.64l-1-1.74.88-.48,1,1.74Zm-1.91-3.48-1-1.75.88-.48,1,1.75Zm-1.91-3.49-1-1.74.88-.48,1,1.74Zm-1.91-3.48-1-1.75.88-.48,1,1.75Zm-1.91-3.49-1-1.74.88-.48,1,1.74Zm-1.91-3.48-1-1.75.88-.48.95,1.75Zm-1.91-3.49-1-1.74.88-.48,1,1.74Zm-1.91-3.48-1-1.75.88-.48.95,1.75ZM54,353.76,53,352l.88-.48,1,1.74Zm-1.92-3.48-1-1.75.88-.48.95,1.75Zm-1.91-3.49-.95-1.74.88-.48,1,1.74Zm-1.91-3.48-1-1.75.88-.48.95,1.75Zm-1.91-3.49-.95-1.74.87-.48,1,1.74Zm-1.91-3.48-1-1.74.87-.49,1,1.75Zm-1.91-3.49-.95-1.74.87-.48,1,1.74Zm-1.91-3.48-1-1.74.87-.48,1,1.74Zm-1.91-3.49-.95-1.74.87-.48,1,1.74Zm-1.91-3.48-1-1.74.87-.49,1,1.75Zm-1.91-3.49-1-1.74.88-.48,1,1.74ZM33,315.43l-1-1.74.88-.48,1,1.74Zm-1.91-3.49-1-1.74.88-.48,1,1.74Zm-1.91-3.48-1-1.74.88-.48L30,308ZM27.23,305l-1-1.74.88-.48,1,1.74Zm-1.91-3.48-1-1.74.88-.48,1,1.74ZM23.41,298l-1-1.74.88-.48,1,1.74Zm-1.91-3.48-1-1.74.88-.48.95,1.74ZM19.59,291l-1-1.74.88-.48.95,1.74Zm-1.91-3.48-1-1.74.88-.48.95,1.74Zm-1.92-3.49-.95-1.74.88-.48,1,1.74Zm-1.91-3.48-.95-1.74.88-.48,1,1.74Zm-1.91-3.49L11,275.35l.88-.48,1,1.74ZM10,273.61l-.95-1.74.88-.48.95,1.74Zm-1.91-3.49-.95-1.74L8,267.9l1,1.74Zm-1.91-3.48-1-1.74.87-.48,1,1.74ZM4.3,263.15l-.95-1.74.87-.48,1,1.74Zm-1.91-3.48-1-1.74.87-.48,1,1.74Z" class="cls-2"/><rect width="1" height="1" x=".18" y="255.01" class="cls-2" transform="translate(-122.78 31.8) rotate(-28.74)"/><rect width="100" height="1" x="82.42" y="394.38" class="cls-2"/><circle cx="82.55" cy="394.95" r="25" class="cls-27"/><circle cx="82.55" cy="394.95" r="17.5" class="cls-28"/><circle cx="82.55" cy="394.95" r="10" class="cls-29"/><polygon points="15.88 261.05 14.74 263.21 19.76 262.56 20.42 267.58 22.22 265.92 21.48 260.32 15.88 261.05" class="cls-2"/><polygon points="20.19 255.44 19.05 257.61 24.07 256.95 24.73 261.98 26.53 260.32 25.8 254.71 20.19 255.44" class="cls-2"/><polygon points="24.5 249.84 23.36 252 28.38 251.35 29.04 256.37 30.84 254.71 30.11 249.11 24.5 249.84" class="cls-2"/><polygon points="28.82 244.23 27.67 246.4 32.69 245.75 33.35 250.77 35.15 249.11 34.42 243.5 28.82 244.23" class="cls-2"/><polygon points="33.13 238.63 31.98 240.8 37.01 240.14 37.66 245.16 39.46 243.5 38.73 237.9 33.13 238.63" class="cls-2"/></g></g></svg>